<svg version="1.1" xmlns="http://www.w3.org/2000/svg" style="display: block;" viewBox="0 0 2048 2048" width="1024" height="1024" preserveAspectRatio="none" xmlns:c2pa="http://c2pa.org/manifest"><metadata><c2pa:manifest>AAAzs2p1bWIAAAAeanVtZGMycGEAEQAQgAAAqgA4m3EDYzJwYQAAADONanVtYgAAAEdqdW1kYzJtYQARABCAAACqADibcQN1cm46YzJwYTo5ODM2YzQ5MC1mNjM4LTRiZDgtODgzZi0zZjIyMjg2ZGQ5ZDEAAAAB4mp1bWIAAAApanVtZGMyYXMAEQAQgAAAqgA4m3EDYzJwYS5hc3NlcnRpb25zAAAAAO1qdW1iAAAAQWp1bWRjYm9yABEAEIAAAKoAOJtxE2MycGEuYWN0aW9ucy52MgAAAAAYYzJzaN+MpYgTRFiLTbfbp8bPZiUAAACkY2JvcqFnYWN0aW9uc4GjZmFjdGlvbmxjMnBhLmNyZWF0ZWRxZGlnaXRhbFNvdXJjZVR5cGV4Rmh0dHA6Ly9jdi5pcHRjLm9yZy9uZXdzY29kZXMvZGlnaXRhbHNvdXJjZXR5cGUvdHJhaW5lZEFsZ29yaXRobWljTWVkaWFrZGVzY3JpcHRpb252Q3JlYXRlZCBieSBSZWNyYWZ0IEFJLgAAAMRqdW1iAAAAQGp1bWRjYm9yABEAEIAAAKoAOJtxE2MycGEuaGFzaC5kYXRhAAAAABhjMnNoteCHez7P+1UtxX8Ejesk5gAAAHxjYm9ypWpleGNsdXNpb25zgaJlc3RhcnQY22ZsZW5ndGgZRPBkbmFtZW5qdW1iZiBtYW5pZmVzdGNhbGdmc2hhMjU2ZGhhc2hYIIQBSS+vkpg5OiYiHdeejAshC3TQCvlRn5tLh2tlcePbY3BhZEkAAAAAAAAAAAAAAAI0anVtYgAAACdqdW1kYzJjbAARABCAAACqADibcQNjMnBhLmNsYWltLnYyAAAAAgVjYm9ypmppbnN0YW5jZUlEeCx4bXA6aWlkOjZjYThhNDc2LTFhZGEtNGI4Ni04MjI0LTVlYTY5YjljMzY5MXRjbGFpbV9nZW5lcmF0b3JfaW5mb6NkbmFtZWpyZWNyYWZ0LmFpZ3ZlcnNpb254KDgxY2U4MmUyYzVjM2NiZmJlOGM2ZmJlMTc5ZDVmOGQ5MWM0MDljZTF3b3JnLmNvbnRlbnRhdXRoLmMycGFfcnNmMC45MC43aXNpZ25hdHVyZXhNc2VsZiNqdW1iZj0vYzJwYS91cm46YzJwYTo5ODM2YzQ5MC1mNjM4LTRiZDgtODgzZi0zZjIyMjg2ZGQ5ZDEvYzJwYS5zaWduYXR1cmVyY3JlYXRlZF9hc3NlcnRpb25zgqJjdXJseCpzZWxmI2p1bWJmPWMycGEuYXNzZXJ0aW9ucy9jMnBhLmFjdGlvbnMudjJkaGFzaFgg6x/tT97f6ZZQwum6uyWt+GeVMR8O7m20wg2JTN4kg7OiY3VybHgpc2VsZiNqdW1iZj1jMnBhLmFzc2VydGlvbnMvYzJwYS5oYXNoLmRhdGFkaGFzaFgg+ph+KekbFWvDUGJUV4td3U8+ykmREIVqKu06xKd7r7xoZGM6dGl0bGV4GlJlY3JhZnQgQUkgR2VuZXJhdGVkIEltYWdlY2FsZ2ZzaGEyNTYAAC8oanVtYgAAAChqdW1kYzJjcwARABCAAACqADibcQNjMnBhLnNpZ25hdHVyZQAAAC74Y2JvctKEWQPsogEmGCGCWQH0MIIB8DCCAZWgAwIBAgIUJcFH1Va4pZJDhzepwEtzPPNj2YMwCgYIKoZIzj0EAwIwQTELMAkGA1UEBhMCVVMxEzARBgNVBAoMClJlY3JhZnQgQUkxHTAbBgNVBAMMFFJlY3JhZnQgQzJQQSBSb290IENBMB4XDTI2MDkxMDE2NTIzNFoXDTI3MDkxMDE2NTIzNFowNzELMAkGA1UEBhMCVVMxEzARBgNVBAoMClJlY3JhZnQgQUkxEzARBgNVBAMMCnJlY3JhZnQuYWkwWTATBgcqhkjOPQIBBggqhkjOPQMBBwNCAASoOPdqG3YmNRdGd+dltfh1ikcE/nkLm8YK10H29taFa8iegusHYB1678yl5Bs18hLaV/Fhd+Ni32xAlnHdbimFo3UwczAMBgNVHRMBAf8EAjAAMA4GA1UdDwEB/wQEAwIGwDATBgNVHSUEDDAKBggrBgEFBQcDBDAdBgNVHQ4EFgQUgVwhvbEXPSSgCubOfUHxCtuoVAQwHwYDVR0jBBgwFoAUc9yF+sfWlRHeWv2Iucaec5jwdAgwCgYIKoZIzj0EAwIDSQAwRgIhAJltDpQN+vbXITLxb+8BNwSL6/5WktO4Sevkb0VXjtfWAiEAqhoz7z/sN32NxdnnZsQVTeu3P7CgGtJdXFx283fp08RZAewwggHoMIIBjaADAgECAhQAydo/NKOQWWu/4V5FktVQHX7jTDAKBggqhkjOPQQDAjBBMQswCQYDVQQGEwJVUzETMBEGA1UECgwKUmVjcmFmdCBBSTEdMBsGA1UEAwwUUmVjcmFmdCBDMlBBIFJvb3QgQ0EwHhcNMjYwOTEwMTY1MjM0WhcNMzYwOTA3MTY1MjM0WjBBMQswCQYDVQQGEwJVUzETMBEGA1UECgwKUmVjcmFmdCBBSTEdMBsGA1UEAwwUUmVjcmFmdCBDMlBBIFJvb3QgQ0EwWTATBgcqhkjOPQIBBggqhkjOPQMBBwNCAAQbQ+eF6fkpnHhTwrMxSBLh/JhROWkzsC8L8jN1r1Rlf8oECvzEFk3WujloPtNs3PLADriqR5rGtd+8giFuiTLno2MwYTAfBgNVHSMEGDAWgBRz3IX6x9aVEd5a/Yi5xp5zmPB0CDAPBgNVHRMBAf8EBTADAQH/MA4GA1UdDwEB/wQEAwIBhjAdBgNVHQ4EFgQUc9yF+sfWlRHeWv2Iucaec5jwdAgwCgYIKoZIzj0EAwIDSQAwRgIhAND2Z+xryBRnMbxk8eAzMcAq8bzl0rfA9Y2z7q5QoEUeAiEA6ZbI3e47h5clRZaARSOOotKXsK/YQMWC3vj91d3bmlOhY3BhZFkqtAAAAAAAAAAAAAAAAAAAAAAAAAAAAAAAAAAAAAAAAAAAAAAAAAAAAAAAAAAAAAAAAAAAAAAAAAAAAAAAAAAAAAAAAAAAAAAAAAAAAAAAAAAAAAAAAAAAAAAAAAAAAAAAAAAAAAAAAAAAAAAAAAAAAAAAAAAAAAAAAAAAAAAAAAAAAAAAAAAAAAAAAAAAAAAAAAAAAAAAAAAAAAAAAAAAAAAAAAAAAAAAAAAAAAAAAAAAAAAAAAAAAAAAAAAAAAAAAAAAAAAAAAAAAAAAAAAAAAAAAAAAAAAAAAAAAAAAAAAAAAAAAAAAAAAAAAAAAAAAAAAAAAAAAAAAAAAAAAAAAAAAAAAAAAAAAAAAAAAAAAAAAAAAAAAAAAAAAAAAAAAAAAAAAAAAAAAAAAAAAAAAAAAAAAAAAAAAAAAAAAAAAAAAAAAAAAAAAAAAAAAAAAAAAAAAAAAAAAAAAAAAAAAAAAAAAAAAAAAAAAAAAAAAAAAAAAAAAAAAAAAAAAAAAAAAAAAAAAAAAAAAAAAAAAAAAAAAAAAAAAAAAAAAAAAAAAAAAAAAAAAAAAAAAAAAAAAAAAAAAAAAAAAAAAAAAAAAAAAAAAAAAAAAAAAAAAAAAAAAAAAAAAAAAAAAAAAAAAAAAAAAAAAAAAAAAAAAAAAAAAAAAAAAAAAAAAAAAAAAAAAAAAAAAAAAAAAAAAAAAAAAAAAAAAAAAAAAAAAAAAAAAAAAAAAAAAAAAAAAAAAAAAAAAAAAAAAAAAAAAAAAAAAAAAAAAAAAAAAAAAAAAAAAAAAAAAAAAAAAAAAAAAAAAAAAAAAAAAAAAAAAAAAAAAAAAAAAAAAAAAAAAAAAAAAAAAAAAAAAAAAAAAAAAAAAAAAAAAAAAAAAAAAAAAAAAAAAAAAAAAAAAAAAAAAAAAAAAAAAAAAAAAAAAAAAAAAAAAAAAAAAAAAAAAAAAAAAAAAAAAAAAAAAAAAAAAAAAAAAAAAAAAAAAAAAAAAAAAAAAAAAAAAAAAAAAAAAAAAAAAAAAAAAAAAAAAAAAAAAAAAAAAAAAAAAAAAAAAAAAAAAAAAAAAAAAAAAAAAAAAAAAAAAAAAAAAAAAAAAAAAAAAAAAAAAAAAAAAAAAAAAAAAAAAAAAAAAAAAAAAAAAAAAAAAAAAAAAAAAAAAAAAAAAAAAAAAAAAAAAAAAAAAAAAAAAAAAAAAAAAAAAAAAAAAAAAAAAAAAAAAAAAAAAAAAAAAAAAAAAAAAAAAAAAAAAAAAAAAAAAAAAAAAAAAAAAAAAAAAAAAAAAAAAAAAAAAAAAAAAAAAAAAAAAAAAAAAAAAAAAAAAAAAAAAAAAAAAAAAAAAAAAAAAAAAAAAAAAAAAAAAAAAAAAAAAAAAAAAAAAAAAAAAAAAAAAAAAAAAAAAAAAAAAAAAAAAAAAAAAAAAAAAAAAAAAAAAAAAAAAAAAAAAAAAAAAAAAAAAAAAAAAAAAAAAAAAAAAAAAAAAAAAAAAAAAAAAAAAAAAAAAAAAAAAAAAAAAAAAAAAAAAAAAAAAAAAAAAAAAAAAAAAAAAAAAAAAAAAAAAAAAAAAAAAAAAAAAAAAAAAAAAAAAAAAAAAAAAAAAAAAAAAAAAAAAAAAAAAAAAAAAAAAAAAAAAAAAAAAAAAAAAAAAAAAAAAAAAAAAAAAAAAAAAAAAAAAAAAAAAAAAAAAAAAAAAAAAAAAAAAAAAAAAAAAAAAAAAAAAAAAAAAAAAAAAAAAAAAAAAAAAAAAAAAAAAAAAAAAAAAAAAAAAAAAAAAAAAAAAAAAAAAAAAAAAAAAAAAAAAAAAAAAAAAAAAAAAAAAAAAAAAAAAAAAAAAAAAAAAAAAAAAAAAAAAAAAAAAAAAAAAAAAAAAAAAAAAAAAAAAAAAAAAAAAAAAAAAAAAAAAAAAAAAAAAAAAAAAAAAAAAAAAAAAAAAAAAAAAAAAAAAAAAAAAAAAAAAAAAAAAAAAAAAAAAAAAAAAAAAAAAAAAAAAAAAAAAAAAAAAAAAAAAAAAAAAAAAAAAAAAAAAAAAAAAAAAAAAAAAAAAAAAAAAAAAAAAAAAAAAAAAAAAAAAAAAAAAAAAAAAAAAAAAAAAAAAAAAAAAAAAAAAAAAAAAAAAAAAAAAAAAAAAAAAAAAAAAAAAAAAAAAAAAAAAAAAAAAAAAAAAAAAAAAAAAAAAAAAAAAAAAAAAAAAAAAAAAAAAAAAAAAAAAAAAAAAAAAAAAAAAAAAAAAAAAAAAAAAAAAAAAAAAAAAAAAAAAAAAAAAAAAAAAAAAAAAAAAAAAAAAAAAAAAAAAAAAAAAAAAAAAAAAAAAAAAAAAAAAAAAAAAAAAAAAAAAAAAAAAAAAAAAAAAAAAAAAAAAAAAAAAAAAAAAAAAAAAAAAAAAAAAAAAAAAAAAAAAAAAAAAAAAAAAAAAAAAAAAAAAAAAAAAAAAAAAAAAAAAAAAAAAAAAAAAAAAAAAAAAAAAAAAAAAAAAAAAAAAAAAAAAAAAAAAAAAAAAAAAAAAAAAAAAAAAAAAAAAAAAAAAAAAAAAAAAAAAAAAAAAAAAAAAAAAAAAAAAAAAAAAAAAAAAAAAAAAAAAAAAAAAAAAAAAAAAAAAAAAAAAAAAAAAAAAAAAAAAAAAAAAAAAAAAAAAAAAAAAAAAAAAAAAAAAAAAAAAAAAAAAAAAAAAAAAAAAAAAAAAAAAAAAAAAAAAAAAAAAAAAAAAAAAAAAAAAAAAAAAAAAAAAAAAAAAAAAAAAAAAAAAAAAAAAAAAAAAAAAAAAAAAAAAAAAAAAAAAAAAAAAAAAAAAAAAAAAAAAAAAAAAAAAAAAAAAAAAAAAAAAAAAAAAAAAAAAAAAAAAAAAAAAAAAAAAAAAAAAAAAAAAAAAAAAAAAAAAAAAAAAAAAAAAAAAAAAAAAAAAAAAAAAAAAAAAAAAAAAAAAAAAAAAAAAAAAAAAAAAAAAAAAAAAAAAAAAAAAAAAAAAAAAAAAAAAAAAAAAAAAAAAAAAAAAAAAAAAAAAAAAAAAAAAAAAAAAAAAAAAAAAAAAAAAAAAAAAAAAAAAAAAAAAAAAAAAAAAAAAAAAAAAAAAAAAAAAAAAAAAAAAAAAAAAAAAAAAAAAAAAAAAAAAAAAAAAAAAAAAAAAAAAAAAAAAAAAAAAAAAAAAAAAAAAAAAAAAAAAAAAAAAAAAAAAAAAAAAAAAAAAAAAAAAAAAAAAAAAAAAAAAAAAAAAAAAAAAAAAAAAAAAAAAAAAAAAAAAAAAAAAAAAAAAAAAAAAAAAAAAAAAAAAAAAAAAAAAAAAAAAAAAAAAAAAAAAAAAAAAAAAAAAAAAAAAAAAAAAAAAAAAAAAAAAAAAAAAAAAAAAAAAAAAAAAAAAAAAAAAAAAAAAAAAAAAAAAAAAAAAAAAAAAAAAAAAAAAAAAAAAAAAAAAAAAAAAAAAAAAAAAAAAAAAAAAAAAAAAAAAAAAAAAAAAAAAAAAAAAAAAAAAAAAAAAAAAAAAAAAAAAAAAAAAAAAAAAAAAAAAAAAAAAAAAAAAAAAAAAAAAAAAAAAAAAAAAAAAAAAAAAAAAAAAAAAAAAAAAAAAAAAAAAAAAAAAAAAAAAAAAAAAAAAAAAAAAAAAAAAAAAAAAAAAAAAAAAAAAAAAAAAAAAAAAAAAAAAAAAAAAAAAAAAAAAAAAAAAAAAAAAAAAAAAAAAAAAAAAAAAAAAAAAAAAAAAAAAAAAAAAAAAAAAAAAAAAAAAAAAAAAAAAAAAAAAAAAAAAAAAAAAAAAAAAAAAAAAAAAAAAAAAAAAAAAAAAAAAAAAAAAAAAAAAAAAAAAAAAAAAAAAAAAAAAAAAAAAAAAAAAAAAAAAAAAAAAAAAAAAAAAAAAAAAAAAAAAAAAAAAAAAAAAAAAAAAAAAAAAAAAAAAAAAAAAAAAAAAAAAAAAAAAAAAAAAAAAAAAAAAAAAAAAAAAAAAAAAAAAAAAAAAAAAAAAAAAAAAAAAAAAAAAAAAAAAAAAAAAAAAAAAAAAAAAAAAAAAAAAAAAAAAAAAAAAAAAAAAAAAAAAAAAAAAAAAAAAAAAAAAAAAAAAAAAAAAAAAAAAAAAAAAAAAAAAAAAAAAAAAAAAAAAAAAAAAAAAAAAAAAAAAAAAAAAAAAAAAAAAAAAAAAAAAAAAAAAAAAAAAAAAAAAAAAAAAAAAAAAAAAAAAAAAAAAAAAAAAAAAAAAAAAAAAAAAAAAAAAAAAAAAAAAAAAAAAAAAAAAAAAAAAAAAAAAAAAAAAAAAAAAAAAAAAAAAAAAAAAAAAAAAAAAAAAAAAAAAAAAAAAAAAAAAAAAAAAAAAAAAAAAAAAAAAAAAAAAAAAAAAAAAAAAAAAAAAAAAAAAAAAAAAAAAAAAAAAAAAAAAAAAAAAAAAAAAAAAAAAAAAAAAAAAAAAAAAAAAAAAAAAAAAAAAAAAAAAAAAAAAAAAAAAAAAAAAAAAAAAAAAAAAAAAAAAAAAAAAAAAAAAAAAAAAAAAAAAAAAAAAAAAAAAAAAAAAAAAAAAAAAAAAAAAAAAAAAAAAAAAAAAAAAAAAAAAAAAAAAAAAAAAAAAAAAAAAAAAAAAAAAAAAAAAAAAAAAAAAAAAAAAAAAAAAAAAAAAAAAAAAAAAAAAAAAAAAAAAAAAAAAAAAAAAAAAAAAAAAAAAAAAAAAAAAAAAAAAAAAAAAAAAAAAAAAAAAAAAAAAAAAAAAAAAAAAAAAAAAAAAAAAAAAAAAAAAAAAAAAAAAAAAAAAAAAAAAAAAAAAAAAAAAAAAAAAAAAAAAAAAAAAAAAAAAAAAAAAAAAAAAAAAAAAAAAAAAAAAAAAAAAAAAAAAAAAAAAAAAAAAAAAAAAAAAAAAAAAAAAAAAAAAAAAAAAAAAAAAAAAAAAAAAAAAAAAAAAAAAAAAAAAAAAAAAAAAAAAAAAAAAAAAAAAAAAAAAAAAAAAAAAAAAAAAAAAAAAAAAAAAAAAAAAAAAAAAAAAAAAAAAAAAAAAAAAAAAAAAAAAAAAAAAAAAAAAAAAAAAAAAAAAAAAAAAAAAAAAAAAAAAAAAAAAAAAAAAAAAAAAAAAAAAAAAAAAAAAAAAAAAAAAAAAAAAAAAAAAAAAAAAAAAAAAAAAAAAAAAAAAAAAAAAAAAAAAAAAAAAAAAAAAAAAAAAAAAAAAAAAAAAAAAAAAAAAAAAAAAAAAAAAAAAAAAAAAAAAAAAAAAAAAAAAAAAAAAAAAAAAAAAAAAAAAAAAAAAAAAAAAAAAAAAAAAAAAAAAAAAAAAAAAAAAAAAAAAAAAAAAAAAAAAAAAAAAAAAAAAAAAAAAAAAAAAAAAAAAAAAAAAAAAAAAAAAAAAAAAAAAAAAAAAAAAAAAAAAAAAAAAAAAAAAAAAAAAAAAAAAAAAAAAAAAAAAAAAAAAAAAAAAAAAAAAAAAAAAAAAAAAAAAAAAAAAAAAAAAAAAAAAAAAAAAAAAAAAAAAAAAAAAAAAAAAAAAAAAAAAAAAAAAAAAAAAAAAAAAAAAAAAAAAAAAAAAAAAAAAAAAAAAAAAAAAAAAAAAAAAAAAAAAAAAAAAAAAAAAAAAAAAAAAAAAAAAAAAAAAAAAAAAAAAAAAAAAAAAAAAAAAAAAAAAAAAAAAAAAAAAAAAAAAAAAAAAAAAAAAAAAAAAAAAAAAAAAAAAAAAAAAAAAAAAAAAAAAAAAAAAAAAAAAAAAAAAAAAAAAAAAAAAAAAAAAAAAAAAAAAAAAAAAAAAAAAAAAAAAAAAAAAAAAAAAAAAAAAAAAAAAAAAAAAAAAAAAAAAAAAAAAAAAAAAAAAAAAAAAAAAAAAAAAAAAAAAAAAAAAAAAAAAAAAAAAAAAAAAAAAAAAAAAAAAAAAAAAAAAAAAAAAAAAAAAAAAAAAAAAAAAAAAAAAAAAAAAAAAAAAAAAAAAAAAAAAAAAAAAAAAAAAAAAAAAAAAAAAAAAAAAAAAAAAAAAAAAAAAAAAAAAAAAAAAAAAAAAAAAAAAAAAAAAAAAAAAAAAAAAAAAAAAAAAAAAAAAAAAAAAAAAAAAAAAAAAAAAAAAAAAAAAAAAAAAAAAAAAAAAAAAAAAAAAAAAAAAAAAAAAAAAAAAAAAAAAAAAAAAAAAAAAAAAAAAAAAAAAAAAAAAAAAAAAAAAAAAAAAAAAAAAAAAAAAAAAAAAAAAAAAAAAAAAAAAAAAAAAAAAAAAAAAAAAAAAAAAAAAAAAAAAAAAAAAAAAAAAAAAAAAAAAAAAAAAAAAAAAAAAAAAAAAAAAAAAAAAAAAAAAAAAAAAAAAAAAAAAAAAAAAAAAAAAAAAAAAAAAAAAAAAAAAAAAAAAAAAAAAAAAAAAAAAAAAAAAAAAAAAAAAAAAAAAAAAAAAAAAAAAAAAAAAAAAAAAAAAAAAAAAAAAAAAAAAAAAAAAAAAAAAAAAAAAAAAAAAAAAAAAAAAAAAAAAAAAAAAAAAAAAAAAAAAAAAAAAAAAAAAAAAAAAAAAAAAAAAAAAAAAAAAAAAAAAAAAAAAAAAAAAAAAAAAAAAAAAAAAAAAAAAAAAAAAAAAAAAAAAAAAAAAAAAAAAAAAAAAAAAAAAAAAAAAAAAAAAAAAAAAAAAAAAAAAAAAAAAAAAAAAAAAAAAAAAAAAAAAAAAAAAAAAAAAAAAAAAAAAAAAAAAAAAAAAAAAAAAAAAAAAAAAAAAAAAAAAAAAAAAAAAAAAAAAAAAAAAAAAAAAAAAAAAAAAAAAAAAAAAAAAAAAAAAAAAAAAAAAAAAAAAAAAAAAAAAAAAAAAAAAAAAAAAAAAAAAAAAAAAAAAAAAAAAAAAAAAAAAAAAAAAAAAAAAAAAAAAAAAAAAAAAAAAAAAAAAAAAAAAAAAAAAAAAAAAAAAAAAAAAAAAAAAAAAAAAAAAAAAAAAAAAAAAAAAAAAAAAAAAAAAAAAAAAAAAAAAAAAAAAAAAAAAAAAAAAAAAAAAAAAAAAAAAAAAAAAAAAAAAAAAAAAAAAAAAAAAAAAAAAAAAAAAAAAAAAAAAAAAAAAAAAAAAAAAAAAAAAAAAAAAAAAAAAAAAAAAAAAAAAAAAAAAAAAAAAAAAAAAAAAAAAAAAAAAAAAAAAAAAAAAAAAAAAAAAAAAAAAAAAAAAAAAAAAAAAAAAAAAAAAAAAAAAAAAAAAAAAAAAAAAAAAAAAAAAAAAAAAAAAAAAAAAAAAAAAAAAAAAAAAAAAAAAAAAAAAAAAAAAAAAAAAAAAAAAAAAAAAAAAAAAAAAAAAAAAAAAAAAAAAAAAAAAAAAAAAAAAAAAAAAAAAAAAAAAAAAAAAAAAAAAAAAAAAAAAAAAAAAAAAAAAAAAAAAAAAAAAAAAAAAAAAAAAAAAAAAAAAAAAAAAAAAAAAAAAAAAAAAAAAAAAAAAAAAAAAAAAAAAAAAAAAAAAAAAAAAAAAAAAAAAAAAAAAAAAAAAAAAAAAAAAAAAAAAAAAAAAAAAAAAAAAAAAAAAAAAAAAAAAAAAAAAAAAAAAAAAAAAAAAAAAAAAAAAAAAAAAAAAAAAAAAAAAAAAAAAAAAAAAAAAAAAAAAAAAAAAAAAAAAAAAAAAAAAAAAAAAAAAAAAAAAAAAAAAAAAAAAAAAAAAAAAAAAAAAAAAAAAAAAAAAAAAAAAAAAAAAAAAAAAAAAAAAAAAAAAAAAAAAAAAAAAAAAAAAAAAAAAAAAAAAAAAAAAAAAAAAAAAAAAAAAAAAAAAAAAAAAAAAAAAAAAAAAAAAAAAAAAAAAAAAAAAAAAAAAAAAAAAAAAAAAAAAAAAAAAAAAAAAAAAAAAAAAAAAAAAAAAAAAAAAAAAAAAAAAAAAAAAAAAAAAAAAAAAAAAAAAAAAAAAAAAAAAAAAAAAAAAAAAAAAAAAAAAAAAAAAAAAAAAAAAAAAAAAAAAAAAAAAAAAAAAAAAAAAAAAAAAAAAAAAAAAAAAAAAAAAAAAAAAAAAAAAAAAAAAAAAAAAAAAAAAAAAAAAAAAAAAAAAAAAAAAAAAAAAAAAAAAAAAAAAAAAAAAAAAAAAAAAAAAAAAAAAAAAAAAAAAAAAAAAAAAAAAAAAAAAAAAAAAAAAAAAAAAAAAAAAAAAAAAAAAAAAAAAAAAAAAAAAAAAAAAAAAAAAAAAAAAAAAAAAAAAAAAAAAAAAAAAAAAAAAAAAAAAAAAAAAAAAAAAAAAAAAAAAAAAAAAAAAAAAAAAAAAAAAAAAAAAAAAAAAAAAAAAAAAAAAAAAAAAAAAAAAAAAAAAAAAAAAAAAAAAAAAAAAAAAAAAAAAAAAAAAAAAAAAAAAAAAAAAAAAAAAAAAAAAAAAAAAAAAAAAAAAAAAAAAAAAAAAAAAAAAAAAAAAAAAAAAAAAAAAAAAAAAAAAAAAAAAAAAAAAAAAAAAAAAAAAAAAAAAAAAAAAAAAAAAAAAAAAAAAAAAAAAAAAAAAAAAAAAAAAAAAAAAAAAAAAAAAAAAAAAAAAAAAAAAAAAAAAAAAAAAAAAAAAAAAAAAAAAAAAAAAAAAAAAAAAAAAAAAAAAAAAAAAAAAAAAAAAAAAAAAAAAAAAAAAAAAAAAAAAAAAAAAAAAAAAAAAAAAAAAAAAAAAAAAAAAAAAAAAAAAAAAAAAAAAAAAAAAAAAAAAAAAAAAAAAAAAAAAAAAAAAAAAAAAAAAAAAAAAAAAAAAAAAAAAAAAAAAAAAAAAAAAAAAAAAAAAAAAAAAAAAAAAAAAAAAAAAAAAAAAAAAAAAAAAAAAAAAAAAAAAAAAAAAAAAAAAAAAAAAAAAAAAAAAAAAAAAAAAAAAAAAAAAAAAAAAAAAAAAAAAAAAAAAAAAAAAAAAAAAAAAAAAAAAAAAAAAAAAAAAAAAAAAAAAAAAAAAAAAAAAAAAAAAAAAAAAAAAAAAAAAAAAAAAAAAAAAAAAAAAAAAAAAAAAAAAAAAAAAAAAAAAAAAAAAAAAAAAAAAAAAAAAAAAAAAAAAAAAAAAAAAAAAAAAAAAAAAAAAAAAAAAAAAAAAAAAAAAAAAAAAAAAAAAAAAAAAAAAAAAAAAAAAAAAAAAAAAAAAAAAAAAAAAAAAAAAAAAAAAAAAAAAAAAAAAAAAAAAAAAAAAAAAAAAAAAAAAAAAAAAAAAAAAAAAAAAAAAAAAAAAAAAAAAAAAAAAAAAAAAAAAAAAAAAAAAAAAAAAAAAAAAAAAAAAAAAAAAAAAAAAAAAAAAAAAAAAAAAAAAAAAAAAAAAAAAAAAAAAAAAAAAAAAAAAAAAAAAAAAAAAAAAAAAAAAAAAAAAAAAAAAAAAAAAAAAAAAAAAAAAAAAAAAAAAAAAAAAAAAAAAAAAAAAAAAAAAAAAAAAAAAAAAAAAAAAAAAAAAAAAAAAAAAAAAAAAAAAAAAAAAAAAAAAAAAAAAAAAAAAAAAAAAAAAAAAAAAAAAAAAAAAAAAAAAAAAAAAAAAAAAAAAAAAAAAAAAAAAAAAAAAAAAAAAAAAAAAAAAAAAAAAAAAAAAAAAAAAAAAAAAAAAAAAAAAAAAAAAAAAAAAAAAAAAAAAAAAAAAAAAAAAAAAAAAAAAAAAAAAAAAAAAAAAAAAAAAAAAAAAAAAAAAAAAAAAAAAAAAAAAAAAAAAAAAAAAAAAAAAAAAAAAAAAAAAAAAAAAAAAAAAAAAAAAAAAAAAAAAAAAAAAAAAAAAAAAAAAAAAAAAAAAAAAAAAAAAAAAAAAAAAAAAAAAAAAAAAAAAAAAAAAAAAAAAAAAAAAAAAAAAAAAAAAAAAAAAAAAAAAAAAAAAAAAAAAAAAAAAAAAAAAAAAAAAAAAAAAAAAAAAAAAAAAAAAAAAAAAAAAAAAAAAAAAAAAAAAAAAAAAAAAAAAAAAAAAAAAAAAAAAAAAAAAAAAAAAAAAAAAAAAAAAAAAAAAAAAAAAAAAAAAAAAAAAAAAAAAAAAAAAAAAAAAAAAAAAAAAAAAAAAAAAAAAAAAAAAAAAAAAAAAAAAAAAAAAAAAAAAAAAAAAAAAAAAAAAAAAAAAAAAAAAAAAAAAAAAAAAAAAAAAAAAAAAAAAAAAAAAAAAAAAAAAAAAAAAAAAAAAAAAAAAAAAAAAAAAAAAAAAAAAAAAAAAAAAAAAAAAAAAAAAAAAAAAAAAAAAAAAAAAAAAAAAAAAAAAAAAAAAAAAAAAAAAAAAAAAAAAAAAAAAAAAAAAAAAAAAAAAAAAAAAAAAAAAAAAAAAAAAAAAAAAAAAAAAAAAAAAAAAAAAAAAAAAAAAAAAAAAAAAAAAAAAAAAAAAAAAAAAAAAAAAAAAAAAAAAAAAAAAAAAAAAAAAAAAAAAAAAAAAAAAAAAAAAAAAAAAAAAAAAAAAAAAAAAAAAAAAAAAAAAAAAAAAAAAAAAAAAAAAAAAAAAAAAAAAAAAAAAAAAAAAAAAAAAAAAAAAAAAAAAAAAAAAAAAAAAAAAAAAAAAAAAAAAAAAAAAAAAAAAAAAAAAAAAAAAAAAAAAAAAAAAAAAAAAAAAAAAAAAAAAAAAAAAAAAAAAAAAAAAAAAAAAAAAAAAAAAAAAAAAAAAAAAAAAAAAAAAAAAAAAAAAAAAAAAAAAAAAAAAAAAAAAAAAAAAAAAAAAAAAAAAAAAAAAAAAAAAAAAAAAAAAAAAAAAAAAAAAAAAAAAAAAAAAAAAAAAAAAAAAAAAAAAAAAAAAAAAAAAAAAAAAAAAAAAAAAAAAAAAAAAAAAAAAAAAAAAAAAAAAAAAAAAAAAAAAAAAAAAAAAAAAAAAAAAAAAAAAAAAAAAAAAAAAAAAAAAAAAAAAAAAAAAAAAAAAAAAAAAAAAAAAAAAAAAAAAAAAAAAAAAAAAAAAAAAAAAAAAAAAAAAAAAAAAAAAAAAAAAAAAAAAAAAAAAAAAAAAAAAAAAAAAAAAAAAAAAAAAAAAAAAAAAAAAAAAAAAAAAAAAAAAAAAAAAAAAAAAAAAAAAAAAAAAAAAAAAAAAAAAAAAAAAAAAAAAAAAAAAAAAAAAAAAAAAAAAAAAAAAAAAAAAAAAAAAAAAAAAAAAAAAAAAAAAAAAAAAAAAAAAAAAAAAAAAAAAAAAAAAAAAAAAAAAAAAAAAAAAAAAAAAAAAAAAAAAAAAAAAAAAAAAAAAAAAAAAAAAAAAAAAAAAAAAAAAAAAAAAAAAAAAAAAAAAAAAAAAAAAAAAAAAAAAAAAAAAAAAAAAAAAAAAAAAAAAAAAAAAAAAAAAAAAAAAAAAAAAAAAAAAAAAAAAAAAAAAAAAAAAAAAAAAAAAAAAAAAAAAAAAAAAAAAAAAAAAAAAAAAAAAAAAAAAAAAAAAAAAAAAAAAAAAAAAAAAAAAAAAAAAAAAAAAAAAAAAAAAAAAAAAAAAAAAAAAAAAAAAAAAAAAAAAAAAAAAAAAAAAAAAAAAAAAAAAAAAAAAAAAAAAAAAAAAAAAAAAAAAAAAAAAAAAAAAAAAAAAAAAAAAAAAAAAAAAAAAAAAAAAAAAAAAAAAAAAAAAAAAAAAAAAAAAAAAAAAAAAAAAAAAAAAAAAAAAAAAAAAAAAAAAAAAAAAAAAAAAAAAAAAAAAAAAAAAAAAAAAAAAAAAAAAAAAAAAAAAAAAAAAAAAAAAAAAAAAAAAAAAAAAAAAAAAAAAAAAAAAAAAAAAAAAAAAAAAAAAAAAAAAAAAAAAAAAAAAAAAAAAAAAAAAAAAAAAAAAAAAAAAAAAAAAAAAAAAAAAAAAAAAAAAAAAAAAAAAAAAAAAAAAAAAAAAAAAAAAAAAAAAAAAAAAAAAAAAAAAAAAAAAAAAAAAAAAAAAAAAAAAAAAAAAAAAAAAAAAAAAAAAAAAAAAAAAAAAAAAAAAAAAAAAAAAAAAAAAAAAAAAAAAAAAAAAAAAAAAAAAAAAAAAAAAAAAAAAAAAAAAAAAAAAAAAAAAAAAAAAAAAAAAAAAAAAAAAAAAAAAAAAAAAAAAAAAAAAAAAAAAAAAAAAAAAAAAAAAAAAAAAAAAAAAAAAAAAAAAAAAAAAAAAAAAAAAAAAAAAAAAAAAAAAAAAAAAAAAAAAAAAAAAAAAAAAAAAAAAAAAAAAAAAAAAAAAAAAAAAAAAAAAAAAAAAAAAAAAAAAAAAAAAAAAAAAAAAAAAAAAAAAAAAAAAAAAAAAAAAAAAAAAAAAAAAAAAAAAAAAAAAAAAAAAAAAAAAAAAAAAAAAAAAAAAAAAAAAAAAAAAAAAAAAAAAAAAAAAAAAAAAAAAAAAAAAAAAAAAAAAAAAAAAAAAAAAAAAAAAAAAAAAAAAAAAAAAAAAAAAAAAAAAAAAAAAAAAAAAAAAAAAAAAAAAAAAAAAAAAAAAAAAAAAAAAAAAAAAAAAAAAAAAAAAAAAAAAAAAAAAAAAAAAAAAAAAAAAAAAAAAAAAAAAAAAAAAAAAAAAAAAAAAAAAAAAAAAAAAAAAAAAAAAAAAAAAAAAAAAAAAAAAAAAAAAAAAAAAAAAAAAAAAAAAAAAAAAAAAAAAAAAAAAAAAAAAAAAAAAAAAAAAAAAAAAAAAAAAAAAAAAAAAAAAAAAAAAAAAAAAAAAAAAAAAAAAAAAAAAAAAAAAAAAAAAAAAAAAAAAAAAAAAAAAAAAAAAAAAAAAAAAAAAAAAAAAAAAAAAAAAAAAAAAAAAAAAAAAAAAAAAAAAAAAAAAAAAAAAAAAAAAAAAAAAAAAAAAAAAAAAAAAAAAAAAAAAAAAAAAAAAAAAAAAAAAAAAAAAAAAAAAAAAAAAAAAAAAAAAAAAAAAAAAAAAAAAAAAAAAAAAAAAAAAAAAAAAAAAAAAAAAAAAAAAAAAAAAAAAAAAAAAAAAAAAAAAAAAAAAAAAAAAAAAAAAAAAAAAAAAAAAAAAAAAAAAAAAAAAAAAAAAAAAAAAAAAAAAAAAAAAAAAAAAAAAAAAAAAAAAAAAAAAAAAAAAAAAAAAAAAAAAAAAAAAAAAAAAAAAAAAAAAAAAAAAAAAAAAAAAAAAAAAAAAAAAAAAAAAAAAAAAAAAAAAAAAAAAAAAAAAAAAAAAAAAAAAAAAAAAAAAAAAAAAAAAAAAAAAAAAAAAAAAAAAAAAAAAAAAAAAAAAAAAAAAAAAAAAAAAAAAAAAAAAAAAAAAAAAAAAAAAAAAAAAAAAAAAAAAAAAAAAAAAAAAAAAAAAAAAAAAAAAAAAAAAAAAAAAAAAAAAAAAAAAAAAAAAAAAAAAAAAAAAAAAAAAAAAAAAAAAAAAAAAAAAAAAAAAAAAAAAAAAAAAAAAAAAAAAAAAAAAAAAAAAAAAAAAAAAAAAAAAAAAAAAAAAAAAAAAAAAAAAAAAAAAAAAAAAAAAAAAAAAAAAAAAAAAAAAAAAAAAAAAAAAAAAAAAAAAAAAAAAAAAAAAAAAAAAAAAAAAAAAAAAAAAAAAAAAAAAAAAAAAAAAAAAAAAAAAAAAAAAAAAAAAAAAAAAAAAAAAAAAAAAAAAAAAAAAAAAAAAAAAAAAAAAAAAAAAAAAAAAAAAAAAAAAAAAAAAAAAAAAAAAAAAAAAAAAAAAAAAAAAAAAAAAAAAAAAAAAAAAAAAAAAAAAAAAAAAAAAAAAAAAAAAAAAAAAAAAAAAAAAAAAAAAAAAAAAAAAAAAAAAAAAAAAAAAAAAAAAAAAAAAAAAAAAAAAAAAAAAAAAAAAAAAAAAAAAAAAAAAAAAAAAAAAAAAAAAAAAAAAAAAAAAAAAAAAAAAAAAAAAAAAAAAAAAAAAAAAAAAAAAAAAAAAAAAAAAAAAAAAAAAAAAAAAAAAAAAAAAAAAAAAAAAAAAAAAAAAAAAAAAAAAAAAAAAAAAAAAAAAAAAAAAAAAAAAAAAAAAAAAAAAAAAAAAAAAAAAAAAAAAAAAAAAAAAAAAAAAAAAAAAAAAAAAAAAAAAAAAAAAAAAAAAAAAAAAAAAAAAAAAAAAAAAAAAAAAAAAAAAAAAAAAAAAAAAAAAAAAAAAAAAAAAAAAAAAAAAAAAAAAAAAAAAAAAAAAAAAAAAAAAAAAAAAAAAAAAAAAAAAAAAAAAAAAAAAAAAAAAAAAAAAAAAAAAAAAAAAAAAAAAAAAAAAAAAAAAAAAAAAAAAAAAAAAAAAAAAAAAAAAAAAAAAAAAAAAAAAAAAAAAAAAAAAAAAAAAAAAAAAAAAAAAAAAAAAAAAAAAAAAAAAAAAAAAAAAAAAAAAAAAAAAAAAAAAAAAAAAAAAAAAAAAAAAAAAAAAAAAAAAAAAAAAAAAAAAAAAAAAAAAAAAAAAAAAAAAAAAAAAAAAAAAAAAAAAAAAAAAAAAAAAAAAAAAAAAAAAAAAAAAAAAAAAAAAAAAAAAAAAAAAAAAAAAAAAAAAAAAAAAAAAAAAAAAAAAAAAAAAAAAAAAAAAAAAAAAAAAAAAAAAAAAAAAAAAAAAAAAAAAAAAAAAAAAAAAAAAAAAAAAAAAAAAAAAAAAAAAAAAAAAAAAAAAAAAAAAAAAAAAAAAAAAAAAAAAAAAAAAAAAAAAAAAAAAAAAAAAAAAAAAAAAAAAAAAAAAAAAAAAAAAAAAAAAAAAAAAAAAAAAAAAAAAAAAAAAAAAAAAAAAAAAAAAAAAAAAAAAAAAAAAAAAAAAAAAAAAAAAAAAAAAAAAAAAAAAAAAAAAAAAAAAAAAAAAAAAAAAAAAAAAAAAAAAAAAAAAAAAAAAAAAAAAAAAAAAAAAAAAAAAAAAAAAAAAAAAAAAAAAAAAAAAAAAAAAAAAAAAAAAAAAAAAAPZYQGpXjbK3BC/V6jJS5MU9yN5Dx6UcsqEZ+lAEm9BUjBXbszcUeP7R/aGRl9PK9tjyAo/agHkleGnAVT8VoPAJKh4=</c2pa:manifest></metadata>
<path transform="translate(0,0)" fill="rgb(253,254,254)" d="M 0 0 L 2048 0 L 2048 2048 L 0 2048 L 0 0 z"/>
<path transform="translate(0,0)" fill="rgb(5,128,71)" d="M 368.297 4.93311 C 387.95 3.49517 420.208 4.56541 440.896 4.57598 L 573.037 4.33933 L 1016.01 4.56804 L 1367.8 4.35318 L 1474.95 4.35165 C 1488 4.3612 1517.09 3.61109 1529.13 4.78971 C 1553.91 4.02068 1581.33 4.52697 1606.33 4.51604 L 1757.37 4.63445 L 1940.73 4.50702 C 1952.54 4.50899 2035.78 3.23342 2041.03 6.50366 C 2044.69 15.8074 2042.46 102.63 2042.43 118.604 L 2042.65 322.831 L 2042.18 1555.79 L 2042.33 1886.76 L 2042 1983.91 C 2041.95 1999.6 2041.94 2015.29 2041.84 2030.98 C 2041.81 2035.34 2040.82 2040.34 2037.38 2043.26 C 2020.44 2044.51 1998.64 2043.97 1981.33 2043.98 L 1887.87 2044.05 L 1596.24 2044.06 L 697.659 2044.1 L 198.155 2044.04 L 67.9414 2044.04 C 56.9279 2044.05 16.3332 2044.73 7.65502 2043.21 C 4.60075 2040.11 5.1823 2037.95 5.87191 2033.89 C 5.11874 2006.78 5.87437 1975.51 5.89281 1948.1 L 6.16691 1805.97 C 5.32419 1793.4 5.99349 1773.58 5.98068 1760.22 L 5.90999 1670.27 L 5.9184 1387.34 L 5.84787 530.257 L 5.90242 157.236 L 5.87455 58.9406 C 5.87595 48.0183 5.28186 17.8403 7.1764 8.84186 C 14.5472 2.99632 57.134 4.88849 68.0397 4.87593 C 97.897 4.73323 127.755 4.7876 157.612 5.03904 C 171.134 4.37191 185.654 4.56026 199.269 4.74134 C 255.515 5.48943 312.097 3.81275 368.297 4.93311 z"/>
<path transform="translate(0,0)" fill="rgb(253,254,254)" d="M 15.7097 18.8367 L 16.6863 15.5406 C 22.0282 14.5937 52.8699 15.0355 59.6133 15.0301 L 164.55 14.9698 L 557.948 14.8019 L 2030.99 15.0042 L 2031.2 2033.61 L 676.278 2033.32 L 262.365 2033.12 C 181.157 2032.99 96.3991 2031.82 15.3873 2033.13 C 15.3714 2028.3 15.6165 2018.44 15.1567 2014.02 C 16.7224 1999.27 15.6926 1964.2 15.698 1947.81 L 15.7831 1819.3 L 15.5785 1410.06 L 15.7097 18.8367 z"/>
<path transform="translate(0,0)" fill="rgb(5,128,71)" d="M 1849.3 158.5 L 1891.64 158.012 C 1890.75 185.464 1891.49 215.079 1891.6 242.761 L 1891.61 368.214 L 1891.77 791.799 L 1891.7 1891.32 L 201.686 1891 L 156.008 1891.05 L 155.844 158.683 L 1849.3 158.5 z"/>
<path transform="translate(0,0)" fill="rgb(253,254,254)" d="M 928.234 921.859 C 925.34 914.447 918.71 905.248 915.072 897.707 C 868.317 800.799 853.387 689.69 873.014 583.474 C 886.757 510.446 917.305 441.619 962.242 382.437 C 970.952 370.989 983.005 355.281 994.638 347.27 C 1001.08 353.276 1008.64 361.914 1014.09 368.841 C 998.467 390.64 982.554 408.367 967.369 431.638 C 918.204 507.458 892.967 596.307 894.936 686.651 C 896.492 781.549 927.915 873.543 984.741 949.561 C 996.139 964.999 1010.21 982.793 1023.9 996.122 C 1024.58 995.572 1025.24 995.008 1025.89 994.43 C 1034.86 986.449 1050.82 966.517 1058.49 956.65 C 1114.67 884.334 1147.18 796.445 1151.57 704.973 C 1158.13 581.133 1114.53 459.872 1030.6 368.57 C 1038.19 362.1 1045.94 354.53 1053.25 347.654 C 1069.1 365.589 1083.76 384.548 1097.12 404.408 C 1175.04 521.079 1199.26 649.839 1172.09 786.992 L 1173.47 787.909 C 1166.13 826.465 1149.05 869.971 1131.73 905.134 C 1129.33 910.006 1122.56 921.62 1119.28 927.054 C 1119.49 927.658 1119.7 928.263 1119.91 928.867 L 1122.27 930.031 C 1233.12 862.915 1359.26 844.158 1484.41 876.117 C 1555.12 894.172 1649.08 938.81 1698.95 992.619 C 1691.89 999.526 1685.1 1006.7 1678.59 1014.14 C 1589.42 931.582 1471.09 887.855 1349.66 892.583 C 1231.58 897.537 1137.42 945.022 1051.29 1023.07 C 1138.2 1109.9 1256.66 1157.7 1379.5 1155.52 C 1468.03 1154.03 1554.07 1125.95 1626.44 1074.93 C 1637.31 1067.36 1647.79 1059.24 1657.84 1050.61 C 1664.33 1045.08 1673.85 1036.27 1680.7 1031.8 C 1687.25 1039.14 1693.74 1046.54 1700.16 1053.99 C 1690.36 1064.1 1672.74 1078.07 1661.39 1086.81 C 1578.7 1150.24 1477.78 1185.34 1373.58 1186.88 C 1295 1187.92 1188.87 1161.86 1122.93 1118.96 L 1119.7 1120.21 C 1120.43 1124.02 1127.42 1135.67 1129.56 1139.79 C 1134.17 1148.69 1152.91 1184.94 1151.7 1193.18 C 1166.33 1232.71 1175.96 1273.91 1180.35 1315.82 C 1191.5 1418.9 1166.8 1527.1 1115.41 1616.89 C 1097 1649.07 1077.98 1674.54 1054.87 1703.31 C 1047.14 1696.07 1038.96 1687.6 1031.39 1680.06 C 1115.99 1575.23 1155.06 1481.33 1151.01 1345.35 C 1148.01 1255.16 1116.94 1168.16 1062.13 1096.47 C 1051.67 1082.57 1036.28 1063.61 1023.7 1051.77 C 1014.01 1061.02 1000.33 1077.48 992.008 1088.01 C 941.615 1151.29 909.898 1227.39 900.431 1307.73 C 886.955 1412.53 909.449 1518.8 964.232 1609.15 C 979.749 1634.66 997.779 1657.58 1016.17 1681.02 C 1008.56 1688.31 1001.14 1695.53 993.159 1702.42 C 944.672 1648.81 906.405 1577.05 886.334 1507.69 C 848.391 1379.71 863.559 1241.84 928.418 1125.17 L 927.775 1123.77 L 928.893 1120.49 L 928.036 1119.4 C 919.712 1123.04 882.815 1145.01 876.747 1144.27 L 876.192 1143.74 C 857.289 1150.27 838.737 1159.86 819.329 1166.19 C 658.991 1218.5 466.791 1171.56 347.715 1052.8 C 355.18 1046.23 362.552 1039.54 369.828 1032.75 C 388.259 1048 406.604 1063.55 426.307 1077.12 C 501.16 1129.39 590.421 1157.08 681.715 1156.35 C 776.348 1155.77 870.745 1122.13 946.299 1065.89 C 965.057 1051.93 980.114 1040.53 996.68 1023.73 C 879.54 908.089 710.446 862.66 552.458 909.725 C 481.477 930.87 425.411 965.176 370.496 1014.07 C 363.221 1007.03 356.433 1000.44 349.492 993.027 C 363.142 982.014 375.771 970.341 389.963 959.597 C 436.009 924.771 487.94 898.504 543.279 882.049 C 634.673 854.729 732.04 853.891 823.616 882.629 C 861.631 894.559 888.556 908.674 923.107 927.372 C 926.032 927.672 926.433 928.253 928.463 927.06 L 928.234 921.859 z"/>
<path transform="translate(0,0)" fill="rgb(3,61,13)" d="M 1172.09 786.992 L 1173.47 787.909 C 1166.13 826.465 1149.05 869.971 1131.73 905.134 C 1129.33 910.006 1122.56 921.62 1119.28 927.054 C 1119.49 927.658 1119.7 928.263 1119.91 928.867 L 1122.27 930.031 C 1121.64 930.73 1110.19 938.571 1108.68 939.618 C 1140.85 890.203 1158.36 844.207 1172.09 786.992 z"/>
<path transform="translate(0,0)" fill="rgb(3,61,13)" d="M 1107.8 1108.64 C 1112.91 1112.34 1117.65 1115.51 1122.93 1118.96 L 1119.7 1120.21 C 1120.43 1124.02 1127.42 1135.67 1129.56 1139.79 C 1134.17 1148.69 1152.91 1184.94 1151.7 1193.18 C 1139.09 1161.56 1128.32 1136.11 1107.8 1108.64 z"/>
<path transform="translate(0,0)" fill="rgb(3,61,13)" d="M 876.192 1143.74 C 899.851 1132.32 917.22 1124.23 938.62 1108.86 L 928.418 1125.17 L 927.775 1123.77 L 928.893 1120.49 L 928.036 1119.4 C 919.712 1123.04 882.815 1145.01 876.747 1144.27 L 876.192 1143.74 z"/>
<path transform="translate(0,0)" fill="rgb(2,24,1)" d="M 928.234 921.859 C 931.304 927.142 934.613 932.592 937.37 938.02 C 932.162 933.782 928.772 931.016 923.107 927.372 C 926.032 927.672 926.433 928.253 928.463 927.06 L 928.234 921.859 z"/>
<path transform="translate(0,0)" fill="rgb(253,254,254)" d="M 1718.75 1052.77 C 1725.8 1046.22 1733.85 1039.77 1741.28 1033.57 C 1798.9 1106.82 1831.62 1161.73 1853.95 1254.42 C 1878.37 1358.41 1868.5 1467.52 1825.81 1565.44 C 1813 1594.48 1798.71 1618.3 1782.33 1645.06 C 1813.77 1697.28 1839.55 1765.24 1859.79 1822.97 C 1865.72 1839.87 1870.23 1859.3 1876.19 1876.77 L 1878.06 1876.94 C 1877.83 1880.21 1878.16 1878.61 1875.61 1881.75 C 1870.49 1883.36 1839.92 1883.53 1835.62 1880.09 L 1835.93 1878.94 C 1832.9 1863.98 1826.55 1845.24 1822.07 1830.43 C 1805.73 1776.37 1783.55 1728.88 1757.9 1678.71 C 1750.31 1688.37 1739.36 1700.66 1731.02 1709.7 C 1643.76 1805.93 1521.59 1863.22 1391.8 1868.76 C 1264 1873.65 1125.95 1826.56 1031.83 1739.37 C 1039.96 1731.83 1046.51 1725.14 1054.15 1717.14 C 1063.19 1725.32 1075.66 1734.74 1085.55 1741.97 C 1190.02 1818.29 1317.38 1852.34 1445.83 1831.94 C 1564.08 1812.23 1669.95 1747.09 1740.86 1650.42 L 1740.15 1648.96 C 1719.04 1605.65 1681.97 1554.48 1651.44 1517.09 C 1554.67 1398.79 1431.92 1304.41 1292.73 1241.28 C 1248.43 1220.93 1205.89 1205.08 1160.01 1189.26 C 1155.87 1176.31 1146.61 1155.18 1141.31 1141.95 C 1163.35 1151.67 1193.49 1161.55 1216.75 1170.15 C 1246.05 1181.02 1274.92 1193.02 1303.29 1206.12 C 1461.24 1278.15 1603.39 1387.48 1707.14 1527.26 C 1729.4 1557.25 1745.91 1584.23 1765.15 1615.93 C 1801.35 1561.79 1825.43 1489.41 1833.45 1425.11 C 1845.84 1320.59 1823.58 1214.89 1770.08 1124.24 C 1753.71 1096.81 1738.33 1077.94 1718.75 1052.77 z"/>
<path transform="translate(0,0)" fill="rgb(7,116,44)" d="M 1876.19 1876.77 L 1878.06 1876.94 C 1877.83 1880.21 1878.16 1878.61 1875.61 1881.75 C 1870.49 1883.36 1839.92 1883.53 1835.62 1880.09 L 1835.93 1878.94 C 1843.47 1878.59 1871.9 1879.47 1876.19 1876.77 z"/>
<path transform="translate(0,0)" fill="rgb(253,254,254)" d="M 309.218 1034.2 C 316.169 1040.6 323.559 1048.21 330.352 1054.9 C 282.23 1107.16 240.065 1187.12 224.364 1256.09 C 194.766 1386.1 213.093 1503.67 282.531 1616.54 C 306.288 1579.38 328.743 1545.72 356.222 1510.91 C 472.907 1364.44 625.872 1251.03 799.931 1181.95 C 814.317 1176.15 830.642 1170.62 845.334 1165.32 C 865.589 1158.03 886.649 1149.41 907.103 1143.07 C 900.733 1157.95 890.673 1176.4 885.916 1191.59 C 766.058 1228.3 653.96 1286.7 555.198 1363.89 C 528.965 1384.33 504.321 1404.52 480.672 1427.99 C 479.572 1433.57 445.288 1468.34 439.964 1468.66 C 434.073 1473.65 417.17 1493.75 411.833 1499.98 C 373.139 1545.09 334.147 1598.12 304.754 1650.11 C 317.803 1665.69 330.721 1681.47 345.184 1695.76 C 436.198 1787.32 560.257 1838.36 689.353 1837.35 C 776.104 1836.72 862.099 1809.02 934.358 1761.67 C 955.762 1747.65 973.244 1736.06 991.562 1717.51 C 999.268 1725.11 1007.16 1732.16 1015.19 1739.4 C 995.228 1760.31 965.843 1779.65 941.271 1794.55 C 858.058 1845.04 765.657 1870.96 668.076 1867.47 C 549.115 1863.44 435.336 1817.81 346.54 1738.54 C 325.325 1719.82 307.85 1700.06 288.606 1679.36 C 252.977 1742.42 229.708 1808.25 211.148 1878.09 C 197.943 1878.33 184.466 1878.28 171.235 1878.36 C 190.124 1810.72 211.808 1746.43 244.732 1684.14 C 251.14 1672.01 258.199 1658.91 263.576 1646.37 C 209.719 1564.94 180.837 1469.54 180.482 1371.91 C 179.63 1280.51 202.432 1194.77 248.765 1116.19 C 267.766 1083.96 282.521 1061.32 309.218 1034.2 z"/>
<path transform="translate(0,0)" fill="rgb(7,116,44)" d="M 480.672 1427.99 C 479.572 1433.57 445.288 1468.34 439.964 1468.66 C 452.422 1455.09 467.321 1440.67 480.672 1427.99 z"/>
<path transform="translate(0,0)" fill="rgb(253,254,254)" d="M 1836.62 169.865 L 1877.05 169.791 C 1861.4 220.76 1845.03 269.585 1822.81 318.075 C 1809.47 347.212 1797.69 375.467 1781.05 403.117 C 1793.29 418.981 1799.34 431.63 1808.67 449.026 C 1842.29 511.739 1861.35 578.604 1865.68 649.717 C 1873.7 783.234 1828.2 914.445 1739.24 1014.33 C 1732.72 1009.02 1723.77 999.34 1716.52 992.984 C 1733.08 977.028 1742.89 961.806 1755.54 943.394 C 1792.59 889.496 1817.72 828.099 1829.14 763.531 C 1848.62 653.444 1828.31 524.589 1763.47 431.913 C 1745.73 463.59 1720.71 500.038 1699.18 528.804 C 1596.4 666.158 1461.76 769.233 1306.36 841.105 C 1264.09 860.658 1224.49 874.159 1181.02 890.252 C 1167.17 895.379 1154.14 902.122 1140.66 908.111 C 1148.21 890.388 1155.89 872.725 1163.7 855.122 C 1195.76 844.307 1222.61 835.473 1254.34 822.99 C 1290.44 809.049 1321.57 793.471 1355.48 775.084 C 1523.33 684.075 1645.08 563.078 1740.77 398.356 C 1736.09 392.073 1731.26 385.905 1726.29 379.859 C 1568.95 189.913 1299.6 153.276 1098.98 296.028 C 1083.14 307.297 1068.98 318.863 1053.98 331.276 C 1046.08 324.507 1038.1 316.872 1031.39 308.918 C 1253.38 113.627 1572.13 140.711 1757.64 370.874 C 1767.37 349.278 1779.24 328.208 1789.15 305.542 C 1809.4 259.236 1822.7 218.083 1836.62 169.865 z"/>
<path transform="translate(0,0)" fill="rgb(253,254,254)" d="M 173.057 170.015 L 212.342 169.395 C 232.265 245.575 254.626 298.658 289.05 369.332 C 292.557 366.204 295.669 362.69 298.831 359.22 C 314.092 342.467 329.058 325.328 345.97 310.196 C 428.421 235.135 533.565 189.739 644.738 181.203 C 782.173 170.968 910.544 220.363 1014.12 309.362 C 1007.56 316.353 999.742 323.789 992.883 330.609 L 992.543 330.317 C 889.311 243.138 777.607 201.756 640.521 211.531 C 544.592 218.371 449.657 260.522 376.432 322.611 C 350.743 344.393 327.537 372.327 305.738 398.113 C 324.368 433.641 352.62 474.391 376.924 505.71 C 464.281 619.435 575.292 712.833 702.283 779.449 C 737.58 797.613 774.927 814.813 811.841 829.332 C 835.642 838.693 860.557 845.695 884.52 854.886 C 892.488 870.805 900.164 889.512 908.541 906.425 C 853.073 882.885 797.31 865.272 742.771 840.764 C 591.048 772.583 457.098 669.692 355.105 538.147 C 333.266 509.981 300.186 463.825 282.433 432.076 C 276.155 445.476 265.436 461.824 258.223 476.282 C 233.89 524.527 218.859 576.923 213.918 630.73 C 202.826 760.743 238.667 884.533 323.204 984.865 L 324.534 983.939 C 326.912 986.351 330.508 990.221 332.156 993.071 C 328.28 997.404 312.723 1014.53 308.235 1015.98 L 307.648 1015.08 C 304.203 1009.03 297.438 1001.57 292.932 996.028 C 244.372 936.302 211.671 864.208 193.515 789.437 C 170.692 691.767 178.554 589.434 216.028 496.397 C 230.857 460.575 246.086 435.09 265.933 402.481 C 224.887 324.589 195.206 256.45 173.057 170.015 z"/>
<path transform="translate(0,0)" fill="rgb(7,116,44)" d="M 323.204 984.865 L 324.534 983.939 C 326.912 986.351 330.508 990.221 332.156 993.071 C 328.28 997.404 312.723 1014.53 308.235 1015.98 L 307.648 1015.08 C 309.389 1012.19 326.216 996.211 329.651 992.721 C 327.026 989.845 325.501 988.007 323.204 984.865 z"/>
<path transform="translate(0,0)" fill="rgb(253,254,254)" d="M 339.192 1001.04 L 339.963 999.549 C 344.058 1002.47 348.61 1007.53 352.337 1011.12 C 356.031 1014.68 366.355 1024.29 363.889 1029.63 C 364.946 1027.34 345.378 1044.24 346.862 1043.42 C 345.02 1044.44 343.022 1045.16 340.949 1045.53 C 340.742 1045.54 340.534 1045.54 340.327 1045.55 C 335.803 1044.15 321.497 1028.21 317.244 1023.68 C 323.806 1016.44 333.658 1008.28 339.192 1001.04 z"/>
<path transform="translate(0,0)" fill="rgb(7,116,44)" d="M 339.192 1001.04 L 339.963 999.549 C 344.058 1002.47 348.61 1007.53 352.337 1011.12 C 356.031 1014.68 366.355 1024.29 363.889 1029.63 C 364.946 1027.34 345.378 1044.24 346.862 1043.42 C 345.02 1044.44 343.022 1045.16 340.949 1045.53 C 340.742 1045.54 340.534 1045.54 340.327 1045.55 C 346.174 1038.1 354.831 1030.07 361.694 1023.3 C 354.539 1016.62 345.459 1008.37 339.192 1001.04 z"/>
<path transform="translate(0,0)" fill="rgb(253,254,254)" d="M 1022.19 316.506 C 1027.33 317.94 1041.91 334.396 1046.15 339.009 C 1041.32 345.169 1029.79 356.192 1023.93 361.578 C 1018.86 359.106 1004.23 343.444 999.543 338.475 L 1022.19 316.506 z"/>
<path transform="translate(0,0)" fill="rgb(253,254,254)" d="M 1706.9 1001.61 C 1712.24 1004.02 1727.03 1019.91 1731.61 1024.84 L 1711.69 1043.32 C 1707.7 1044.29 1691.13 1025.38 1687.59 1021.67 C 1694.23 1015.87 1700.88 1008.19 1706.9 1001.61 z"/>
<path transform="translate(0,0)" fill="rgb(253,254,254)" d="M 1023.4 1690.19 C 1030.63 1696.93 1037.8 1703.75 1044.91 1710.63 C 1037.68 1717.35 1030.64 1724.08 1022.88 1730.18 C 1015.38 1723.65 1009.01 1717.19 1002.01 1710.17 C 1008.96 1703.34 1015.84 1696.32 1023.4 1690.19 z"/>
<path transform="translate(0,0)" fill="rgb(32,156,69)" d="M 6.16691 1805.97 C 5.32419 1793.4 5.99349 1773.58 5.98068 1760.22 L 5.90999 1670.27 L 5.9184 1387.34 L 5.84787 530.257 L 5.90242 157.236 L 5.87455 58.9406 C 5.87595 48.0183 5.28186 17.8403 7.1764 8.84186 C 14.5472 2.99632 57.134 4.88849 68.0397 4.87593 C 97.897 4.73323 127.755 4.7876 157.612 5.03904 C 149.872 7.28054 137.515 5.62925 134.357 6.97805 C 119.967 7.2128 15.5524 6.3217 11.5887 8.98911 C 8.5823 14.0038 8.76788 18.9298 9.12521 24.6669 C 10.9304 22.8885 10.2659 19.8275 10.483 16.2712 L 12.0347 15.5024 C 14.9144 18.443 12.1694 19.2024 14.1725 21.9083 L 15.7097 18.8367 L 15.5785 1410.06 L 15.7831 1819.3 L 15.698 1947.81 C 15.6926 1964.2 16.7224 1999.27 15.1567 2014.02 C 13.9664 2006.64 14.4827 1982.52 14.4875 1973.62 L 14.5379 1891.3 C 14.5453 1873.93 15.0585 1855.64 14.2945 1838.37 C 11.9296 1784.92 12.4537 1731.66 12.4545 1678.15 L 11.5798 1200.09 C 11.5602 1169.83 12.3035 1139.55 12.4883 1109.5 C 13.2837 1029.33 12.9632 949.158 11.5267 869 C 10.7697 810.493 14.6678 751.997 12.3107 693.384 C 11.9286 683.882 13.0868 668 10.8449 659.26 C 9.6476 662.071 10.4973 809.966 10.4959 824.554 L 11.0126 1513.8 L 10.1796 1731.19 L 10.5132 1905.1 C 10.5228 1920.28 12.0874 1966.21 8.82928 1977.62 L 8.07252 1984.02 C 8.12449 2001.03 8.13265 2017.11 6.55375 2034.08 L 5.87191 2033.89 C 5.11874 2006.78 5.87437 1975.51 5.89281 1948.1 L 6.16691 1805.97 z"/>
<path transform="translate(0,0)" fill="rgb(3,61,13)" d="M 6.16691 1805.97 C 5.32419 1793.4 5.99349 1773.58 5.98068 1760.22 L 5.90999 1670.27 L 5.9184 1387.34 L 5.84787 530.257 L 5.90242 157.236 L 5.87455 58.9406 C 5.87595 48.0183 5.28186 17.8403 7.1764 8.84186 C 14.5472 2.99632 57.134 4.88849 68.0397 4.87593 C 97.897 4.73323 127.755 4.7876 157.612 5.03904 C 149.872 7.28054 137.515 5.62925 134.357 6.97805 C 119.967 7.2128 15.5524 6.3217 11.5887 8.98911 C 8.5823 14.0038 8.76788 18.9298 9.12521 24.6669 C 8.29926 91.1923 8.91506 158.507 8.92804 225.087 L 8.75619 554.852 L 8.88155 1377.84 L 8.63822 1777.93 L 8.71374 1909.13 C 8.69527 1927.08 7.58916 1961.25 8.82928 1977.62 L 8.07252 1984.02 C 8.12449 2001.03 8.13265 2017.11 6.55375 2034.08 L 5.87191 2033.89 C 5.11874 2006.78 5.87437 1975.51 5.89281 1948.1 L 6.16691 1805.97 z"/>
<path transform="translate(0,0)" fill="rgb(2,24,1)" d="M 6.16691 1805.97 C 8.04056 1819.99 7.32612 1849.59 7.28698 1864.43 L 7.68902 1946.58 C 7.69081 1955.95 7.1715 1975.59 8.07252 1984.02 C 8.12449 2001.03 8.13265 2017.11 6.55375 2034.08 L 5.87191 2033.89 C 5.11874 2006.78 5.87437 1975.51 5.89281 1948.1 L 6.16691 1805.97 z"/>
<path transform="translate(0,0)" fill="rgb(7,116,44)" d="M 1529.13 4.78971 C 1553.91 4.02068 1581.33 4.52697 1606.33 4.51604 L 1757.37 4.63445 L 1940.73 4.50702 C 1952.54 4.50899 2035.78 3.23342 2041.03 6.50366 C 2022.29 10.652 1975.49 7.26689 1954.15 7.7066 C 1907.46 8.68915 1860.76 8.946 1814.06 8.47707 C 1804.34 8.40293 1794.95 7.47476 1785.28 7.52201 C 1732.12 7.78188 1678.87 8.71324 1625.69 8.18808 C 1587.1 7.80694 1550.02 6.31728 1511.25 6.62412 C 1517.38 7.42733 1551.9 6.19133 1553.67 7.88878 C 1548.27 9.30356 1494.98 8.36796 1487.44 7.45408 L 1489.96 7.34817 C 1486.59 7.04105 1478.49 6.78824 1476.06 5.11499 C 1492.69 4.82624 1511.44 6.2884 1527.93 4.90144 L 1529.13 4.78971 z"/>
<path transform="translate(0,0)" fill="rgb(7,116,44)" d="M 157.612 5.03904 C 171.134 4.37191 185.654 4.56026 199.269 4.74134 C 255.515 5.48943 312.097 3.81275 368.297 4.93311 C 356.587 7.12177 335.314 6.50342 322.678 6.47836 L 259.245 6.59121 C 230.18 7.09218 201.111 7.29092 172.042 7.18739 C 165.847 7.21072 139.31 7.75799 134.357 6.97805 C 137.515 5.62925 149.872 7.28054 157.612 5.03904 z"/>
</svg>